<svg 
          width="22.282039642333984" 
          height="21.5546875" fill="none" 
          xmlns="http://www.w3.org/2000/svg">
          <path d="M 21.94824101326539 10.044726192951202 L 10.51093730721187 0.1180662214756012 C 10.423144340271708 0.042382627725601196 10.311132633288555 0 10.193066230468027 0 L 7.513867155055632 0 C 7.289843726653823 0 7.186913680886001 0.27851561922580004 7.3564449189289505 0.423828125 L 17.95820253378192 9.626953125 L 0.24218748704292842 9.626953125 C 0.10898436628221797 9.626953125 0 9.7359374971129 0 9.869140625 L 0 11.685546875 C 0 11.8187500028871 0.10898436628221797 11.927734375 0.24218748704292842 11.927734375 L 17.95517408154755 11.927734375 L 7.353417390566525 21.130859375 C 7.183886152523575 21.2791992216371 7.2868161982913975 21.5546875 7.5108396266932065 21.5546875 L 10.2808590097467 21.5546875 C 10.338378537197622 21.5546875 10.3958975124907 21.53349609230645 10.438280322001438 21.494140625 L 21.94824101326539 11.509961307048798 C 22.053043610327656 11.418826863635331 22.137073892240984 11.30626707803458 22.194657986070656 11.179882168769836 C 22.252242079900327 11.053497259505093 22.282039642333988 10.916228849440813 22.282039642333984 10.77734375 C 22.282039642333988 10.638458650559187 22.252242079900327 10.501190240494907 22.194657986070656 10.374805331230164 C 22.137073892240984 10.24842042196542 22.053043610327656 10.135860636364669 21.94824101326539 10.044726192951202 L 21.94824101326539 10.044726192951202 Z" fill="rgb(120.00000044703484,27.000000290572643,27.000000290572643)"/>
        </svg>